<svg xmlns="http://www.w3.org/2000/svg" viewBox="0 0 400 400" width="400" height="400">
  <defs>
    <radialGradient id="glow" cx="50%" cy="50%" r="50%">
      <stop offset="0%" stop-color="#76B900" stop-opacity="0.25"/>
      <stop offset="60%" stop-color="#76B900" stop-opacity="0.05"/>
      <stop offset="100%" stop-color="#76B900" stop-opacity="0"/>
    </radialGradient>
    <filter id="blur">
      <feGaussianBlur stdDeviation="2"/>
    </filter>
  </defs>
  <rect width="400" height="400" fill="#000000"/>
  <circle cx="200" cy="200" r="160" fill="url(#glow)"/>
  <g stroke="#76B900" stroke-width="1.5" fill="none" opacity="0.6">
    <line x1="80" y1="80" x2="320" y2="80"/>
    <line x1="80" y1="120" x2="320" y2="120"/>
    <line x1="80" y1="160" x2="320" y2="160"/>
    <line x1="80" y1="200" x2="320" y2="200"/>
    <line x1="80" y1="240" x2="320" y2="240"/>
    <line x1="80" y1="280" x2="320" y2="280"/>
    <line x1="80" y1="320" x2="320" y2="320"/>
    <line x1="80" y1="80" x2="80" y2="320"/>
    <line x1="120" y1="80" x2="120" y2="320"/>
    <line x1="160" y1="80" x2="160" y2="320"/>
    <line x1="200" y1="80" x2="200" y2="320"/>
    <line x1="240" y1="80" x2="240" y2="320"/>
    <line x1="280" y1="80" x2="280" y2="320"/>
    <line x1="320" y1="80" x2="320" y2="320"/>
  </g>
  <g fill="#76B900" opacity="0.9">
    <rect x="80" y="80" width="40" height="40" filter="url(#blur)"/>
    <rect x="120" y="80" width="40" height="40" filter="url(#blur)"/>
    <rect x="80" y="120" width="40" height="40" filter="url(#blur)"/>
    <rect x="160" y="160" width="40" height="40" filter="url(#blur)"/>
    <rect x="200" y="200" width="40" height="40" filter="url(#blur)"/>
    <rect x="240" y="240" width="40" height="40" filter="url(#blur)"/>
    <rect x="280" y="280" width="40" height="40" filter="url(#blur)"/>
    <rect x="240" y="280" width="40" height="40" filter="url(#blur)"/>
    <rect x="280" y="240" width="40" height="40" filter="url(#blur)"/>
  </g>
  <g fill="#76B900" opacity="1">
    <rect x="80" y="80" width="40" height="40"/>
    <rect x="120" y="80" width="40" height="40"/>
    <rect x="80" y="120" width="40" height="40"/>
    <rect x="160" y="160" width="40" height="40"/>
    <rect x="200" y="200" width="40" height="40"/>
    <rect x="240" y="240" width="40" height="40"/>
    <rect x="280" y="280" width="40" height="40"/>
    <rect x="240" y="280" width="40" height="40"/>
    <rect x="280" y="240" width="40" height="40"/>
  </g>
  <text x="200" y="370" text-anchor="middle" font-family="JetBrains Mono, monospace" font-size="13" fill="#64748b" letter-spacing="2">O(N) MEMORY</text>
</svg>
